<?xml version="1.0" encoding="UTF-8" standalone="no"?><!DOCTYPE svg PUBLIC "-//W3C//DTD SVG 1.1//EN" "http://www.w3.org/Graphics/SVG/1.1/DTD/svg11.dtd"><svg width="100%" height="100%" viewBox="0 0 563 510" version="1.1" xmlns="http://www.w3.org/2000/svg" xmlns:xlink="http://www.w3.org/1999/xlink" xml:space="preserve" xmlns:serif="http://www.serif.com/" style="fill-rule:evenodd;clip-rule:evenodd;stroke-linecap:round;stroke-linejoin:round;stroke-miterlimit:1.5;"><rect id="ArtBoard1" x="0" y="0" width="562.701" height="509.469" style="fill:none;"/><g><g><path d="M161.854,355.908l-31.333,50.246l149.52,-62.551l101.48,123.641l-9.135,-162.177l150.978,-62.794l-156.997,-38.343l-8.853,-161.157l-86.219,138.292l-156.656,-38.537l36.916,44.635l-8.29,5.137l-53.189,-65.051l176.681,43.054l98.631,-158.018l10.44,184.576l177.2,43.264l-170.539,71.099l10.505,184.595l-115.823,-140.567l-170.853,71.143l47.312,-75.197l8.224,4.71Z" style="fill:#327896;stroke:#000;stroke-width:4.17px;"/></g><g><path d="M47.065,327.328c-9.462,-0.004 -21.161,-1.135 -35.099,-3.391l0.011,-22.307c17.295,3.258 29.096,4.888 35.404,4.891c13.226,0.007 19.842,-4.176 19.846,-12.549l0.004,-7.873c0.002,-3.999 -0.938,-7.061 -2.819,-9.187c-1.881,-2.125 -5.263,-3.189 -10.147,-3.191l-11.598,-0.006c-21.773,-0.011 -32.654,-10.639 -32.643,-31.884l0.004,-8.997c0.005,-10.623 3.621,-18.431 10.847,-23.426c7.227,-4.995 18.674,-7.489 34.342,-7.481c8.139,0.004 18.466,0.821 30.979,2.452l-0.011,21.745c-15.362,-2.257 -25.942,-3.387 -31.742,-3.39c-8.037,-0.004 -13.43,0.805 -16.178,2.428c-2.951,1.748 -4.428,4.497 -4.43,8.246l-0.004,8.623c-0.003,6.373 4.37,9.562 13.12,9.567l11.904,0.006c11.293,0.005 19.482,2.571 24.566,7.698c5.085,5.126 7.624,12.938 7.619,23.435l-0.004,8.06c-0.007,14.497 -4.235,24.305 -12.682,29.424c-4.071,2.622 -8.574,4.463 -13.509,5.523c-4.935,1.06 -10.861,1.588 -17.78,1.584Z" style="fill:#287896;fill-rule:nonzero;stroke:#000;stroke-width:4.17px;stroke-linecap:butt;stroke-miterlimit:2;"/><path d="M143.516,327.377c-3.764,-0.002 -6.918,-0.191 -9.462,-0.567c-2.543,-0.376 -5.086,-1.127 -7.629,-2.253c-2.848,-1.127 -5.162,-2.69 -6.941,-4.69c-1.78,-2.001 -3.228,-4.751 -4.346,-8.25c-1.219,-3.625 -1.827,-7.812 -1.825,-12.561l0.024,-47.425l-14.956,-0.007l0.009,-16.871l14.956,0.007l0.013,-26.243l22.281,0.011l-0.013,26.244l20.297,0.01l-0.008,16.871l-20.298,-0.011l-0.021,42.739c-0.002,4.374 0.301,7.655 0.911,9.842c0.609,2.187 1.778,3.75 3.507,4.688c1.73,0.938 4.375,1.408 7.936,1.41c1.424,0.001 4.069,-0.31 7.936,-0.933l-0.009,17.058c-4.782,0.622 -8.903,0.933 -12.362,0.931Z" style="fill:#287896;fill-rule:nonzero;stroke:#000;stroke-width:4.17px;stroke-linecap:butt;stroke-miterlimit:2;"/><path d="M189.605,327.4c-6.918,-0.003 -12.081,-0.787 -15.489,-2.351c-3.407,-1.564 -5.797,-4.377 -7.168,-8.439c-1.372,-4.062 -2.056,-10.154 -2.051,-18.277c0.003,-7.248 0.744,-12.934 2.221,-17.057c1.477,-4.124 3.87,-7.09 7.177,-8.901c3.308,-1.81 7.861,-2.714 13.66,-2.711l25.029,0.013l0.003,-6.186c0.002,-3.874 -0.429,-6.749 -1.293,-8.624c-0.864,-1.875 -2.44,-3.188 -4.729,-3.939c-2.289,-0.751 -5.722,-1.127 -10.301,-1.129c-6.308,-0.004 -14.956,0.742 -25.945,2.236l0.009,-17.246c8.038,-1.245 17.449,-1.865 28.234,-1.86c9.462,0.005 16.761,0.883 21.899,2.635c5.137,1.752 8.823,4.754 11.059,9.004c2.237,4.25 3.353,10.436 3.348,18.559l-0.031,62.422l-21.824,-0.011l0.005,-8.248c-1.732,3.623 -4.073,6.184 -7.024,7.682c-2.952,1.623 -8.548,2.432 -16.789,2.428Zm8.708,-17.054c4.476,0.003 7.681,-0.183 9.614,-0.557c1.425,-0.249 2.417,-0.624 2.977,-1.123c0.56,-0.5 1.043,-1.312 1.451,-2.436c0.407,-0.875 0.611,-2.187 0.612,-3.937l0.009,-17.62l-15.261,-0.008c-3.459,-0.002 -5.901,0.278 -7.326,0.84c-1.424,0.562 -2.392,1.686 -2.901,3.373c-0.51,1.687 -0.766,4.654 -0.768,8.903c-0.002,4.124 0.251,6.999 0.759,8.624c0.508,1.624 1.499,2.687 2.974,3.188c1.475,0.5 4.095,0.752 7.86,0.753Z" style="fill:#287896;fill-rule:nonzero;stroke:#000;stroke-width:4.17px;stroke-linecap:butt;stroke-miterlimit:2;"/><path d="M255.748,203.902l44.563,0.023c13.227,0.007 22.789,1.98 28.688,5.919c5.899,3.94 8.846,10.533 8.842,19.781l-0.011,21.369c-0.004,7.124 -2.067,12.715 -6.189,16.774c-4.123,4.06 -9.593,6.65 -16.41,7.771l28.666,50.064l-27.47,-0.013l-25.92,-47.814l-10.988,-0.005l-0.024,47.8l-23.808,-0.012l0.061,-121.657Zm44.23,54.571c5.596,0.003 9.412,-0.901 11.448,-2.712c2.035,-1.811 3.055,-5.341 3.057,-10.589l0.005,-8.623c0.002,-4.499 -1.09,-7.593 -3.277,-9.281c-2.186,-1.688 -5.925,-2.533 -11.216,-2.536l-20.45,-0.01l-0.017,33.741l20.45,0.01Z" style="fill:#287896;fill-rule:nonzero;stroke:#000;stroke-width:4.17px;stroke-linecap:butt;stroke-miterlimit:2;"/></g></g></svg>